<?xml version="1.0" encoding="utf-8"?>
<!-- Generator: Adobe Illustrator 16.0.3, SVG Export Plug-In . SVG Version: 6.00 Build 0)  -->
<!DOCTYPE svg PUBLIC "-//W3C//DTD SVG 1.1//EN" "http://www.w3.org/Graphics/SVG/1.1/DTD/svg11.dtd">
<svg version="1.1" id="레이어_1" xmlns="http://www.w3.org/2000/svg" xmlns:xlink="http://www.w3.org/1999/xlink" x="0px"
	 y="0px" width="71.875px" height="102.083px" viewBox="0 0 71.875 102.083" enable-background="new 0 0 71.875 102.083"
	 xml:space="preserve">
<polygon fill="#EECAB1" points="22.194,45.25 46.337,13.889 70.97,31.604 48.254,63.155 "/>
<polygon fill="#E5E5E4" points="3.333,63.417 48.667,63.417 22.194,45.25 "/>
<g>
	<path fill="#E5E5E4" stroke="#5E5E5F" stroke-miterlimit="10" d="M29.663,32.228L40.25,16.813c0,0,1.007-1.636,0.25-3.188
		c-0.75-1.537-2.261,0.566-2.261,0.566L28.057,29.083c0,0-1.064,2.785-0.225,3.272C28.832,32.937,29.663,32.228,29.663,32.228z"/>
	<path fill="#E9C6AF" stroke="#5E5E5F" stroke-miterlimit="10" d="M22.375,30.325l0.227,14.325l23.735-30.761L44.338,2.254
		L22.375,30.325z M28.057,29.083l10.182-14.892c0,0,1.511-2.104,2.261-0.566c0.757,1.552-0.25,3.188-0.25,3.188L29.663,32.228
		c0,0-0.831,0.708-1.831,0.127C26.993,31.868,28.057,29.083,28.057,29.083z"/>
</g>
<g>
	<polygon fill="#EECAB1" points="3.339,63.417 3.333,63.417 3.333,100.083 48.667,100.083 48.667,63.417 	"/>
	<polygon fill="#EECAB1" points="48.667,63.417 48.667,100.083 70.667,68.083 70.667,31.417 	"/>
	<polygon fill="#EECAB1" points="70.667,31.417 70.208,31.417 48.667,63.417 	"/>
	<polygon fill="#EECAB1" points="3.666,62.893 3.333,63.417 3.339,63.417 	"/>
	<line fill="none" stroke="#5F5F5F" stroke-miterlimit="10" x1="3.339" y1="63.417" x2="48.667" y2="63.417"/>
</g>
<g>
	<path fill="#D56867" stroke="#231815" stroke-miterlimit="10" d="M22.715,69.989c0,0,0.802,1.501,0,3.066c0,0,1.1,1.326,1.531,0
		c1.739-5.345-0.082-6.998-1.589-6.998c-1.506,0-2.729,0.846-2.729,2.373c0,0,0.297,2.227,2.332,1.934c0,0,1.744-1.198-0.496-1.853"
		/>
	<path fill="#D56867" stroke="#231815" stroke-miterlimit="10" d="M23.843,69.989c0,0,0.802,1.501,0,3.066c0,0,1.1,1.326,1.531,0
		c1.739-5.345-0.081-6.997-1.588-6.997c-1.507,0-2.729,0.847-2.729,2.373c0,0,0.298,2.227,2.332,1.934c0,0,1.745-1.198-0.497-1.852"
		/>
	<g>
		<path fill="#FFFFFF" stroke="#231815" stroke-miterlimit="10" d="M18.976,75.335"/>
		<path fill="#EEE77B" stroke="#231815" stroke-miterlimit="10" d="M18.722,76.168c0,0-2.887,0.975-2.723,1.762
			c0.168,0.814,3.319,0.979,3.319,0.979L18.722,76.168z"/>
		<path fill="#FFFFFF" stroke="#231815" stroke-miterlimit="10" d="M27.116,79.645c0.48-0.753,0.758-1.637,0.758-2.509
			c0-2.201-2.428-3.986-4.819-3.986c-2.391,0-4.329,1.785-4.329,3.986c0,1.479,1.182,2.996,2.681,3.836
			c-1.482,1.269-2.431,3.204-2.431,5.375c0,3.82,2.932,6.917,6.549,6.917c3.619,0,6.551-3.097,6.551-6.917
			C32.076,83.107,29.963,80.396,27.116,79.645z"/>
		<g>
			<line fill="none" stroke="#231815" stroke-miterlimit="10" x1="20.481" y1="75.867" x2="24.402" y2="75.867"/>
			<path fill="#FFFFFF" stroke="#231815" stroke-miterlimit="10" d="M21.648,75.867c0,0,0.496,1.354,1.092,0"/>
		</g>
	</g>
	<g>
		<path fill="#D5D6D5" stroke="#231815" stroke-miterlimit="10" d="M14.383,81.788L14.383,81.788L14.383,81.788z"/>
		<path fill="#D5D6D5" stroke="#231815" stroke-miterlimit="10" d="M34.33,82.775l-2.352,2.885l-2.106-2.453l-2.807,2.454
			l-2.185-2.454l-2.106,2.454l-2.185-2.454l-2.184,3.035l-3.233-3.035c-0.823,1.469-1.291,3.146-1.291,4.927
			c0,5.786,4.924,10.476,10.998,10.476c6.074,0,10.998-4.69,10.998-10.476C35.876,86.176,35.312,84.344,34.33,82.775z"/>
	</g>
	<path fill="#FFFFFF" stroke="#231815" stroke-miterlimit="10" d="M25.206,83.359c0,0,4.717-3.384,6.697-0.136
		c0,0,2.248,4.598-1.645,7.678c-0.809,0.639-0.708-1.333-0.12-3.693c0,0-1.204,5.302-2.997,5.081
		c-0.699-0.086,0.175-1.572,0.45-3.121c0,0-1.546,3.937-3.737,4.64c-0.927,0.297,0.769-1.792,0.952-3.44c0,0-1.01,4.075-4.883,3.95
		C16.844,94.218,21.976,86.254,25.206,83.359z"/>
</g>
<g>
	<g>
		<g>
			<path fill="#A3A2A2" d="M46.704,44.926c-0.246,0.079-0.57,0.122-0.97,0.127c-0.153,0.588-0.325,1.095-0.518,1.524
				c-0.194,0.427-0.417,0.851-0.667,1.266c-0.252,0.416-0.527,0.807-0.822,1.173c-0.764,0.947-1.613,1.574-2.548,1.878
				c-0.935,0.304-1.711,0.207-2.329-0.292c-0.386-0.311-0.64-0.726-0.764-1.247c-0.124-0.521-0.109-1.153,0.046-1.892
				c0.154-0.739,0.5-1.656,1.037-2.75c-0.732-0.168-1.243-0.371-1.536-0.605c-0.485-0.391-0.684-1.073-0.596-2.047
				c0.088-0.975,0.5-1.919,1.237-2.833c0.557-0.692,1.123-1.154,1.698-1.384s1.068-0.179,1.481,0.154
				c0.955,0.769,0.824,2.521-0.389,5.255c1.061,0.163,2.382,0.207,3.966,0.134c-0.01-0.643-0.099-1.205-0.269-1.689
				c-0.169-0.483-0.515-0.993-1.039-1.53l1.26-1.563c0.377,0.47,0.653,0.936,0.825,1.4c0.172,0.463,0.296,0.949,0.371,1.456
				c0.075,0.507,0.076,1.101,0.004,1.779c0.143-0.007,0.233-0.012,0.27-0.016l0.858-0.118l0.763-0.103l0.211-0.039L46.704,44.926
				L46.704,44.926z M44.61,45.131c-1.386,0.104-2.862,0.044-4.429-0.18c-0.467,0.928-0.708,1.72-0.722,2.375
				c-0.017,0.656,0.175,1.145,0.574,1.467c0.271,0.218,0.607,0.333,1.012,0.347c0.402,0.014,0.808-0.109,1.213-0.37
				c0.405-0.261,0.771-0.593,1.096-0.998C43.95,47.035,44.368,46.154,44.61,45.131z M40.027,43.051
				c0.491-1.027,0.733-1.827,0.727-2.404c-0.005-0.575-0.141-0.969-0.403-1.18c-0.166-0.133-0.375-0.166-0.627-0.097
				c-0.252,0.068-0.514,0.271-0.784,0.606c-0.249,0.309-0.42,0.628-0.518,0.958c-0.099,0.329-0.106,0.637-0.028,0.925
				c0.079,0.287,0.213,0.507,0.403,0.66C39.046,42.72,39.457,42.897,40.027,43.051z"/>
		</g>
		<g>
			<path fill="#231815" d="M35.366,50.711l-0.813-1.467c-0.14-0.271-0.259-0.557-0.357-0.856c-0.009,0.015-0.022,0.058-0.041,0.125
				c-0.093,0.245-0.173,0.408-0.238,0.49c-0.094,0.115-0.175,0.144-0.243,0.088c-0.075-0.06-0.145-0.191-0.211-0.393
				c-0.067-0.201-0.098-0.375-0.095-0.522c0.015-0.325,0.148-0.733,0.4-1.225c0.25-0.491,0.585-0.996,1.005-1.516
				c0.254-0.315,0.503-0.583,0.751-0.803c0.249-0.221,0.486-0.387,0.716-0.499c0.229-0.112,0.44-0.168,0.635-0.165
				c0.194,0.001,0.365,0.061,0.511,0.178c0.203,0.164,0.342,0.364,0.414,0.599c0.074,0.235,0.087,0.523,0.04,0.867
				c-0.053,0.379-0.147,0.701-0.282,0.969c-0.013,0.031-0.042,0.08-0.084,0.147l0.017,0.013c0.896-0.906,1.618-1.138,2.167-0.696
				c0.11,0.089,0.205,0.204,0.287,0.346c0.08,0.143,0.143,0.304,0.185,0.485c0.044,0.18,0.062,0.369,0.056,0.569
				c-0.007,0.436-0.067,0.909-0.184,1.42s-0.27,0.996-0.458,1.457c-0.189,0.458-0.39,0.821-0.603,1.085
				c-0.18,0.223-0.372,0.419-0.576,0.59c-0.205,0.171-0.388,0.29-0.553,0.358c-0.162,0.068-0.282,0.071-0.358,0.01
				c-0.07-0.057-0.115-0.134-0.135-0.231c-0.021-0.098-0.023-0.249-0.006-0.454l-0.028,0.006c-0.038,0.093-0.086,0.178-0.146,0.25
				c-0.125,0.155-0.261,0.251-0.41,0.289c-0.148,0.039-0.285,0.006-0.408-0.092c-0.07-0.056-0.2-0.227-0.392-0.51
				C35.74,51.342,35.55,51.038,35.366,50.711z M36.408,48.518c0.021,0.035,0.043,0.072,0.07,0.112
				c0.027,0.041,0.053,0.08,0.074,0.116c0.249,0.42,0.439,0.775,0.573,1.064c0.133,0.29,0.226,0.559,0.281,0.806
				c0.037,0.147,0.055,0.328,0.054,0.545c0.357-0.274,0.606-0.473,0.748-0.597c0.142-0.125,0.27-0.259,0.384-0.403
				c0.135-0.165,0.233-0.328,0.296-0.488c0.064-0.16,0.097-0.33,0.102-0.514c0.003-0.27-0.043-0.529-0.138-0.778
				s-0.228-0.44-0.395-0.576c-0.184-0.147-0.405-0.193-0.662-0.136c-0.126,0.028-0.245,0.078-0.356,0.147
				c-0.112,0.07-0.248,0.182-0.408,0.335c-0.152,0.137-0.264,0.228-0.335,0.271C36.624,48.466,36.527,48.498,36.408,48.518z
				 M35.189,46.495l1.039,1.723c0.031-0.03,0.061-0.061,0.088-0.095c0.119-0.148,0.204-0.365,0.252-0.649
				c0.061-0.356,0.068-0.665,0.022-0.927c-0.046-0.261-0.144-0.45-0.292-0.569c-0.308-0.249-0.624-0.168-0.95,0.236
				C35.258,46.326,35.205,46.42,35.189,46.495z"/>
		</g>
		<g>
			<path fill="#231815" d="M44.264,44.113l-1.938-3.174c-0.152-0.242-0.243-0.433-0.268-0.577c-0.013-0.086-0.004-0.181,0.022-0.285
				l-0.013-0.011l-0.046,0.057c-0.064,0.079-0.16,0.275-0.288,0.587c-0.145,0.34-0.258,0.563-0.342,0.667
				c-0.045,0.055-0.084,0.087-0.115,0.095c-0.033,0.007-0.069-0.004-0.108-0.035c-0.091-0.073-0.164-0.184-0.222-0.332
				c-0.057-0.148-0.089-0.306-0.096-0.475c-0.007-0.168,0.014-0.318,0.063-0.452c0.114-0.301,0.315-0.672,0.602-1.115
				c0.285-0.443,0.623-0.905,1.008-1.384c0.415-0.516,0.836-0.901,1.26-1.155c0.425-0.254,0.845-0.369,1.258-0.346
				c0.415,0.024,0.806,0.184,1.178,0.484c0.374,0.301,0.677,0.694,0.911,1.179c0.234,0.485,0.361,0.978,0.378,1.48
				c0.047,1.182-0.396,2.353-1.331,3.512c-0.299,0.374-0.599,0.694-0.897,0.963c-0.298,0.269-0.523,0.422-0.674,0.463
				c-0.092,0.031-0.178,0.013-0.256-0.05C44.328,44.193,44.3,44.161,44.264,44.113z M43.125,38.613l1.914,2.904
				c0.012,0.018,0.045,0.063,0.101,0.135c0.138,0.193,0.231,0.36,0.278,0.501c0.04,0.104,0.069,0.244,0.089,0.418
				c0.069-0.076,0.143-0.164,0.222-0.262c0.192-0.239,0.34-0.448,0.441-0.627c0.103-0.18,0.177-0.364,0.224-0.552
				c0.047-0.188,0.07-0.383,0.066-0.584c-0.008-0.383-0.091-0.738-0.246-1.063s-0.381-0.609-0.677-0.846
				c-0.272-0.22-0.558-0.369-0.86-0.448c-0.3-0.08-0.587-0.084-0.856-0.011C43.551,38.249,43.319,38.395,43.125,38.613z"/>
		</g>
	</g>
	<g>
		<path fill="#231815" d="M46.791,34.974l0.859-1.069l-0.527-0.425l0.747-0.928l0.528,0.424l0.786-0.976
			c0.094-0.116,0.206-0.122,0.336-0.018c0.257,0.207,0.295,0.422,0.114,0.648l-0.65,0.808l0.157,0.126
			c0.265,0.213,0.605,0.336,1.023,0.367c0.419,0.031,0.953-0.061,1.603-0.278c0.2-0.063,0.313,0.043,0.336,0.317
			c0.011,0.295-0.085,0.484-0.29,0.565c-0.697,0.289-1.323,0.436-1.879,0.443c0.114,0.542,0.124,1.123,0.026,1.748
			c-0.032,0.213-0.194,0.346-0.486,0.397c-0.261,0.053-0.388-0.034-0.381-0.26c0.03-0.556-0.016-1.035-0.136-1.436
			c-0.12-0.402-0.312-0.709-0.576-0.922l-0.158-0.127l-0.855,1.061L46.791,34.974L46.791,34.974z M54.138,32.969
			c0.478,0.385,0.569,0.764,0.27,1.134l-0.113,0.141c-0.135,0.168-0.265,0.203-0.389,0.103l-4.564-3.676l0.763-0.948L54.138,32.969
			L54.138,32.969z"/>
		<path fill="#231815" d="M54.484,25.615c0.552,0.445,0.817,1.064,0.795,1.858c-0.021,0.794-0.282,1.684-0.782,2.671
			c-0.092,0.209-0.271,0.291-0.533,0.242c-0.256-0.051-0.333-0.191-0.235-0.421c0.342-0.729,0.551-1.379,0.625-1.954
			c0.005-0.019,0.004-0.038,0.002-0.055L53.1,29.516l-0.554-0.446l1.63-2.023c-0.082-0.142-0.195-0.272-0.34-0.389l-1.72,2.135
			l-0.58-0.468l2.167-2.69c0.211-0.262,0.414-0.315,0.607-0.159L54.484,25.615L54.484,25.615z M56.114,30.634l-1.082-0.871
			l0.747-0.927l0.897,0.723c0.124,0.099,0.253,0.064,0.389-0.104l2.196-2.726c0.094-0.117,0.203-0.127,0.327-0.027
			c0.263,0.211,0.304,0.43,0.123,0.657l-2.382,2.956C56.905,30.839,56.5,30.946,56.114,30.634z M57.912,25.583
			c0.479,0.386,0.568,0.764,0.271,1.133l-0.103,0.128c-0.135,0.167-0.266,0.203-0.389,0.104l-3.245-2.614l0.753-0.935L57.912,25.583
			L57.912,25.583z"/>
	</g>
</g>
<line fill="none" stroke="#5F5F5F" stroke-miterlimit="10" x1="48.667" y1="100.083" x2="48.667" y2="63.417"/>
<path fill="none" stroke="#5F5F5F" stroke-miterlimit="10" d="M69.489,57.6"/>
<path fill="none" stroke="#5F5F5F" stroke-miterlimit="10" d="M50.657,74.692"/>
<path fill="none" stroke="#5F5F5F" stroke-miterlimit="10" d="M22.171,46.325"/>
<path fill="none" stroke="#5F5F5F" stroke-miterlimit="10" d="M22.171,25.325"/>
<path fill="none" stroke="#5F5F5F" stroke-miterlimit="10" d="M22.027,45.604"/>
<path fill="none" stroke="#5F5F5F" stroke-miterlimit="10" d="M68.588,7.954"/>
<path fill="none" stroke="#5F5F5F" stroke-miterlimit="10" d="M22.171,25.325"/>
<path fill="none" stroke="#5F5F5F" stroke-miterlimit="10" d="M45.338,14.851"/>
<path fill="none" stroke="#5F5F5F" stroke-miterlimit="10" d="M68.588,7.954"/>
<path fill="none" stroke="#5F5F5F" stroke-miterlimit="10" d="M3.339,63.417"/>
<path fill="none" stroke="#5F5F5F" stroke-miterlimit="10" d="M22.171,38.609"/>
<line fill="none" stroke="#5F5F5F" stroke-miterlimit="10" x1="3.339" y1="62.893" x2="3.333" y2="100.083"/>
<line fill="none" stroke="#5F5F5F" stroke-miterlimit="10" x1="3.333" y1="100.083" x2="48.667" y2="100.083"/>
<line fill="none" stroke="#5F5F5F" stroke-miterlimit="10" x1="48.667" y1="100.083" x2="70.667" y2="68.083"/>
<line fill="none" stroke="#5F5F5F" stroke-miterlimit="10" x1="70.667" y1="31.417" x2="70.667" y2="68.083"/>
<polygon fill="#E9C6AF" stroke="#5F5F5F" stroke-miterlimit="10" points="3.333,63.155 22.027,37.889 22.027,45.604 "/>
<polyline fill="none" stroke="#5F5F5F" stroke-miterlimit="10" points="46.337,13.889 70.667,31.417 48.667,63.417 22.375,45.374 
	"/>
</svg>
