<?xml version="1.0" encoding="utf-8"?>
<!-- Generator: Adobe Illustrator 16.0.3, SVG Export Plug-In . SVG Version: 6.00 Build 0)  -->
<!DOCTYPE svg PUBLIC "-//W3C//DTD SVG 1.1//EN" "http://www.w3.org/Graphics/SVG/1.1/DTD/svg11.dtd">
<svg version="1.1" id="레이어_1" xmlns="http://www.w3.org/2000/svg" xmlns:xlink="http://www.w3.org/1999/xlink" x="0px"
	 y="0px" width="77.333px" height="120.333px" viewBox="0 0 77.333 120.333" enable-background="new 0 0 77.333 120.333"
	 xml:space="preserve">
<polygon fill="#E5E5E4" points="3.333,81.667 48.667,81.667 22.375,59 "/>
<g>
	<path fill="#E5E5E4" stroke="#5E5E5F" stroke-miterlimit="10" d="M29.663,42.478L40.25,27.063c0,0,1.007-1.636,0.25-3.188
		c-0.75-1.537-2.261,0.566-2.261,0.566L28.057,39.333c0,0-1.064,2.785-0.225,3.272C28.832,43.187,29.663,42.478,29.663,42.478z"/>
	<path fill="#E9C6AF" stroke="#5E5E5F" stroke-miterlimit="10" d="M22.375,43.575L22.602,57.9l24.735-38.761l0.001-14.635
		L22.375,43.575z M28.057,39.333l10.182-14.892c0,0,1.511-2.104,2.261-0.566c0.757,1.552-0.25,3.188-0.25,3.188L29.663,42.478
		c0,0-0.831,0.708-1.831,0.127C26.993,42.118,28.057,39.333,28.057,39.333z"/>
</g>
<g>
	<polygon fill="#EECAB1" points="3.339,81.667 3.333,81.667 3.333,118.333 48.667,118.333 48.667,81.667 	"/>
	<polygon fill="#EECAB1" points="48.667,81.667 48.667,118.333 74.667,77.333 74.667,40.667 	"/>
	<polygon fill="#EECAB1" points="74.667,40.667 74.208,40.667 48.667,81.667 	"/>
	<polygon fill="#EECAB1" points="3.666,81.143 3.333,81.667 3.339,81.667 	"/>
	<polygon fill="#EECAB1" points="33.576,40.667 47.338,18.575 33.438,40.667 	"/>
	<polygon fill="#EECAB1" points="22.171,51.438 3.666,81.143 22.171,51.962 	"/>
	<polygon fill="#EECAB1" points="21.54,59.987 33.576,40.667 33.438,40.667 22.171,58.575 22.171,51.962 3.666,81.143 3.339,81.667 
			"/>
	<polyline fill="#EECAB1" points="21.868,58.987 48.667,81.667 74.208,40.667 48.038,19.139 	"/>
	<line fill="none" stroke="#5F5F5F" stroke-miterlimit="10" x1="3.339" y1="81.667" x2="48.667" y2="81.667"/>
</g>
<g>
	<path fill="#D56867" stroke="#231815" stroke-miterlimit="10" d="M22.715,88.239c0,0,0.802,1.501,0,3.066c0,0,1.1,1.326,1.531,0
		c1.739-5.345-0.082-6.998-1.589-6.998c-1.506,0-2.729,0.846-2.729,2.373c0,0,0.297,2.227,2.332,1.934c0,0,1.744-1.198-0.496-1.853"
		/>
	<path fill="#D56867" stroke="#231815" stroke-miterlimit="10" d="M23.843,88.239c0,0,0.802,1.501,0,3.066c0,0,1.1,1.326,1.531,0
		c1.739-5.345-0.081-6.997-1.588-6.997c-1.507,0-2.729,0.847-2.729,2.373c0,0,0.298,2.227,2.332,1.934c0,0,1.745-1.198-0.497-1.852"
		/>
	<g>
		<path fill="#FFFFFF" stroke="#231815" stroke-miterlimit="10" d="M18.976,93.585"/>
		<path fill="#EEE77B" stroke="#231815" stroke-miterlimit="10" d="M18.722,94.418c0,0-2.887,0.975-2.723,1.762
			c0.168,0.814,3.319,0.979,3.319,0.979L18.722,94.418z"/>
		<path fill="#FFFFFF" stroke="#231815" stroke-miterlimit="10" d="M27.116,97.895c0.48-0.753,0.758-1.637,0.758-2.509
			c0-2.201-2.428-3.986-4.819-3.986c-2.391,0-4.329,1.785-4.329,3.986c0,1.479,1.182,2.996,2.681,3.836
			c-1.482,1.269-2.431,3.204-2.431,5.375c0,3.82,2.932,6.917,6.549,6.917c3.619,0,6.551-3.097,6.551-6.917
			C32.076,101.357,29.963,98.646,27.116,97.895z"/>
		<g>
			<line fill="none" stroke="#231815" stroke-miterlimit="10" x1="20.481" y1="94.117" x2="24.402" y2="94.117"/>
			<path fill="#FFFFFF" stroke="#231815" stroke-miterlimit="10" d="M21.648,94.117c0,0,0.496,1.354,1.092,0"/>
		</g>
	</g>
	<g>
		<path fill="#D5D6D5" stroke="#231815" stroke-miterlimit="10" d="M14.383,100.038L14.383,100.038L14.383,100.038z"/>
		<path fill="#D5D6D5" stroke="#231815" stroke-miterlimit="10" d="M34.33,101.025l-2.352,2.885l-2.106-2.453l-2.807,2.454
			l-2.185-2.454l-2.106,2.454l-2.185-2.454l-2.184,3.035l-3.233-3.035c-0.823,1.469-1.291,3.146-1.291,4.927
			c0,5.786,4.924,10.476,10.998,10.476c6.074,0,10.998-4.69,10.998-10.476C35.876,104.426,35.312,102.594,34.33,101.025z"/>
	</g>
	<path fill="#FFFFFF" stroke="#231815" stroke-miterlimit="10" d="M25.206,101.609c0,0,4.717-3.384,6.697-0.136
		c0,0,2.248,4.598-1.645,7.678c-0.809,0.639-0.708-1.333-0.12-3.693c0,0-1.204,5.302-2.997,5.081
		c-0.699-0.086,0.175-1.572,0.45-3.121c0,0-1.546,3.937-3.737,4.64c-0.927,0.297,0.769-1.792,0.952-3.44c0,0-1.01,4.075-4.883,3.95
		C16.844,112.468,21.976,104.504,25.206,101.609z"/>
</g>
<g>
	<g>
		<g>
			<path fill="#A3A2A2" d="M48.105,57.774c-0.291,0.124-0.672,0.215-1.143,0.268c-0.185,0.731-0.392,1.365-0.623,1.907
				c-0.232,0.541-0.497,1.079-0.796,1.612c-0.301,0.534-0.627,1.04-0.978,1.518c-0.908,1.238-1.913,2.097-3.017,2.575
				c-1.104,0.479-2.018,0.453-2.742-0.078c-0.452-0.331-0.748-0.804-0.889-1.421c-0.142-0.616-0.12-1.383,0.069-2.297
				c0.188-0.914,0.603-2.066,1.244-3.455c-0.861-0.118-1.462-0.302-1.805-0.552c-0.569-0.417-0.797-1.219-0.686-2.41
				c0.111-1.191,0.604-2.384,1.48-3.579c0.662-0.904,1.332-1.531,2.011-1.876c0.679-0.347,1.259-0.343,1.744,0.011
				c1.118,0.819,0.95,2.957-0.501,6.413c1.249,0.072,2.805-0.03,4.67-0.305c-0.007-0.777-0.107-1.448-0.303-2.015
				c-0.195-0.566-0.598-1.143-1.211-1.732l1.497-2.043c0.44,0.525,0.761,1.058,0.961,1.599c0.199,0.541,0.341,1.115,0.425,1.721
				c0.084,0.605,0.081,1.324-0.009,2.154c0.167-0.025,0.274-0.042,0.318-0.052l1.012-0.243l0.899-0.214l0.25-0.072L48.105,57.774
				L48.105,57.774z M45.638,58.269c-1.633,0.29-3.372,0.391-5.215,0.305c-0.558,1.178-0.848,2.167-0.871,2.962
				c-0.024,0.797,0.197,1.367,0.665,1.71c0.317,0.231,0.713,0.332,1.189,0.301c0.474-0.03,0.953-0.228,1.432-0.591
				c0.48-0.363,0.914-0.809,1.299-1.338C44.844,60.654,45.344,59.537,45.638,58.269z M40.255,56.289
				c0.587-1.302,0.878-2.3,0.875-2.998c-0.001-0.696-0.158-1.157-0.465-1.382c-0.194-0.143-0.44-0.158-0.738-0.044
				c-0.298,0.112-0.607,0.388-0.928,0.827c-0.296,0.403-0.5,0.81-0.618,1.221c-0.119,0.411-0.131,0.785-0.041,1.125
				c0.09,0.339,0.247,0.59,0.47,0.752C39.103,56.003,39.584,56.17,40.255,56.289z"/>
		</g>
		<g>
			<path fill="#231815" d="M34.702,66.119l-0.945-1.682c-0.163-0.311-0.301-0.644-0.414-0.996c-0.011,0.02-0.026,0.073-0.049,0.157
				c-0.112,0.308-0.207,0.514-0.285,0.621c-0.111,0.15-0.207,0.195-0.288,0.136c-0.087-0.064-0.169-0.214-0.245-0.451
				c-0.077-0.236-0.112-0.442-0.108-0.622c0.021-0.396,0.181-0.906,0.481-1.531s0.698-1.275,1.196-1.955
				c0.302-0.413,0.598-0.766,0.892-1.062c0.294-0.297,0.576-0.526,0.847-0.689c0.271-0.163,0.521-0.255,0.75-0.275
				c0.229-0.021,0.43,0.031,0.6,0.155c0.238,0.175,0.399,0.4,0.483,0.677c0.085,0.276,0.099,0.625,0.04,1.045
				c-0.066,0.465-0.18,0.867-0.34,1.208c-0.016,0.039-0.05,0.102-0.101,0.188l0.02,0.014c1.062-1.203,1.915-1.57,2.558-1.098
				c0.129,0.095,0.24,0.223,0.335,0.386c0.094,0.163,0.166,0.351,0.215,0.565c0.049,0.213,0.069,0.44,0.061,0.683
				c-0.012,0.529-0.086,1.108-0.229,1.742s-0.325,1.239-0.552,1.819c-0.227,0.578-0.466,1.041-0.719,1.386
				c-0.213,0.292-0.441,0.552-0.683,0.783c-0.242,0.231-0.46,0.397-0.654,0.5c-0.191,0.102-0.333,0.12-0.422,0.054
				c-0.082-0.06-0.134-0.148-0.157-0.264c-0.024-0.116-0.025-0.298-0.003-0.548l-0.033,0.01c-0.045,0.118-0.103,0.226-0.174,0.32
				c-0.148,0.203-0.309,0.335-0.485,0.398c-0.175,0.064-0.335,0.041-0.479-0.063c-0.082-0.06-0.234-0.251-0.457-0.571
				C35.137,66.839,34.917,66.494,34.702,66.119z M35.948,63.338c0.023,0.04,0.05,0.083,0.081,0.127
				c0.031,0.046,0.061,0.09,0.086,0.131c0.29,0.479,0.512,0.887,0.666,1.222c0.154,0.335,0.261,0.65,0.324,0.944
				c0.042,0.173,0.062,0.39,0.06,0.654c0.422-0.374,0.718-0.645,0.886-0.812c0.168-0.168,0.32-0.346,0.456-0.534
				c0.16-0.216,0.277-0.425,0.353-0.626c0.078-0.201,0.117-0.411,0.124-0.634c0.006-0.328-0.046-0.637-0.156-0.927
				c-0.11-0.29-0.265-0.506-0.46-0.651c-0.215-0.158-0.475-0.187-0.778-0.087c-0.148,0.05-0.289,0.124-0.42,0.221
				c-0.133,0.098-0.293,0.25-0.483,0.455c-0.18,0.185-0.313,0.307-0.397,0.369C36.202,63.25,36.088,63.3,35.948,63.338z
				 M34.528,61.032l1.21,1.965c0.037-0.04,0.072-0.081,0.104-0.125c0.142-0.194,0.243-0.466,0.302-0.816
				c0.075-0.439,0.086-0.813,0.034-1.126c-0.052-0.311-0.166-0.529-0.339-0.655c-0.36-0.265-0.733-0.131-1.121,0.398
				C34.61,60.819,34.547,60.939,34.528,61.032z"/>
		</g>
		<g>
			<path fill="#231815" d="M45.237,57.076l-2.257-3.618c-0.178-0.274-0.283-0.496-0.312-0.667c-0.015-0.103-0.004-0.219,0.029-0.348
				l-0.016-0.012l-0.055,0.075c-0.076,0.104-0.191,0.352-0.344,0.746c-0.173,0.43-0.309,0.712-0.408,0.849
				c-0.053,0.072-0.099,0.115-0.137,0.128c-0.039,0.013-0.081,0.003-0.126-0.029c-0.106-0.078-0.192-0.204-0.259-0.376
				c-0.066-0.173-0.103-0.36-0.109-0.563c-0.007-0.203,0.02-0.387,0.078-0.555c0.137-0.378,0.376-0.852,0.718-1.422
				c0.339-0.571,0.74-1.169,1.199-1.796c0.493-0.673,0.992-1.19,1.494-1.547c0.503-0.358,0.998-0.547,1.485-0.568
				c0.488-0.02,0.949,0.128,1.384,0.447c0.438,0.321,0.792,0.762,1.064,1.321c0.272,0.56,0.417,1.143,0.434,1.75
				c0.046,1.427-0.486,2.898-1.596,4.412c-0.356,0.488-0.711,0.912-1.065,1.272c-0.353,0.361-0.62,0.574-0.798,0.641
				c-0.108,0.048-0.21,0.037-0.302-0.03C45.313,57.166,45.28,57.13,45.237,57.076z M43.941,50.547l2.231,3.292
				c0.014,0.021,0.052,0.071,0.117,0.151c0.162,0.218,0.27,0.41,0.323,0.575c0.046,0.122,0.079,0.287,0.102,0.496
				c0.082-0.1,0.169-0.215,0.263-0.344c0.229-0.313,0.404-0.583,0.525-0.813c0.122-0.229,0.211-0.461,0.268-0.695
				c0.057-0.233,0.085-0.472,0.083-0.715c-0.006-0.463-0.101-0.883-0.281-1.259c-0.18-0.376-0.444-0.692-0.791-0.946
				c-0.319-0.234-0.654-0.381-1.009-0.441c-0.354-0.062-0.692-0.033-1.009,0.087C44.446,50.056,44.171,50.26,43.941,50.547z"/>
		</g>
	</g>
	<g>
		<path fill="#231815" d="M48.288,45.706l1.021-1.396l-0.618-0.453l0.887-1.212l0.619,0.452l0.934-1.275
			c0.112-0.152,0.244-0.172,0.396-0.062c0.301,0.221,0.344,0.477,0.129,0.771l-0.773,1.055l0.185,0.135
			c0.31,0.227,0.709,0.336,1.203,0.324c0.493-0.012,1.122-0.187,1.89-0.525c0.237-0.1,0.369,0.015,0.394,0.344
			c0.011,0.356-0.104,0.596-0.346,0.719c-0.823,0.432-1.562,0.685-2.217,0.758c0.131,0.643,0.137,1.346,0.017,2.115
			c-0.04,0.262-0.231,0.442-0.576,0.538c-0.308,0.095-0.457,0.004-0.446-0.27c0.04-0.677-0.01-1.251-0.148-1.723
			c-0.138-0.474-0.362-0.823-0.671-1.049l-0.185-0.136l-1.016,1.386L48.288,45.706L48.288,45.706z M56.96,42.411
			c0.56,0.411,0.664,0.858,0.309,1.343l-0.135,0.184c-0.161,0.22-0.314,0.277-0.458,0.17l-5.347-3.916l0.907-1.238L56.96,42.411
			L56.96,42.411z"/>
		<path fill="#231815" d="M57.427,33.46c0.647,0.474,0.955,1.193,0.922,2.158c-0.031,0.964-0.345,2.073-0.943,3.329
			c-0.11,0.265-0.321,0.384-0.629,0.355c-0.301-0.032-0.391-0.192-0.273-0.482c0.409-0.922,0.66-1.736,0.751-2.44
			c0.006-0.024,0.005-0.046,0.003-0.067l-1.493,2.037l-0.649-0.475l1.937-2.643c-0.095-0.163-0.228-0.307-0.397-0.431l-2.043,2.79
			l-0.679-0.499l2.574-3.514c0.25-0.342,0.49-0.43,0.716-0.265L57.427,33.46L57.427,33.46z M59.306,39.35l-1.267-0.928l0.887-1.211
			l1.051,0.77c0.145,0.106,0.297,0.049,0.458-0.171l2.609-3.561c0.112-0.153,0.24-0.178,0.385-0.071
			c0.309,0.225,0.354,0.486,0.139,0.781l-2.83,3.862C60.237,39.505,59.759,39.682,59.306,39.35z M61.465,33.019
			c0.561,0.411,0.664,0.859,0.31,1.341l-0.122,0.167c-0.161,0.219-0.315,0.277-0.459,0.171l-3.801-2.785l0.895-1.221L61.465,33.019
			L61.465,33.019z"/>
	</g>
</g>
<line fill="none" stroke="#5F5F5F" stroke-miterlimit="10" x1="48.667" y1="118.333" x2="48.667" y2="81.667"/>
<line fill="none" stroke="#5F5F5F" stroke-miterlimit="10" x1="48.667" y1="81.667" x2="74.667" y2="40.667"/>
<line fill="none" stroke="#5F5F5F" stroke-miterlimit="10" x1="3.339" y1="81.667" x2="22.171" y2="58.575"/>
<line fill="none" stroke="#5F5F5F" stroke-miterlimit="10" x1="22.171" y1="58.575" x2="47.338" y2="19.101"/>
<line fill="none" stroke="#5F5F5F" stroke-miterlimit="10" x1="22.171" y1="58.575" x2="48.667" y2="81.667"/>
<path fill="none" stroke="#5F5F5F" stroke-miterlimit="10" d="M22.171,43.575"/>
<path fill="none" stroke="#5F5F5F" stroke-miterlimit="10" d="M22.171,58.575"/>
<path fill="none" stroke="#5F5F5F" stroke-miterlimit="10" d="M47.338,3.575"/>
<path fill="none" stroke="#5F5F5F" stroke-miterlimit="10" d="M22.171,43.575"/>
<path fill="none" stroke="#5F5F5F" stroke-miterlimit="10" d="M47.338,19.101"/>
<path fill="none" stroke="#5F5F5F" stroke-miterlimit="10" d="M47.338,3.575"/>
<line fill="none" stroke="#5F5F5F" stroke-miterlimit="10" x1="22.171" y1="51.859" x2="3.339" y2="81.667"/>
<line fill="none" stroke="#5F5F5F" stroke-miterlimit="10" x1="3.339" y1="81.143" x2="3.333" y2="118.333"/>
<line fill="none" stroke="#5F5F5F" stroke-miterlimit="10" x1="3.333" y1="118.333" x2="48.667" y2="118.333"/>
<line fill="none" stroke="#5F5F5F" stroke-miterlimit="10" x1="48.667" y1="118.333" x2="74.667" y2="77.333"/>
<line fill="none" stroke="#5F5F5F" stroke-miterlimit="10" x1="74.667" y1="40.667" x2="74.667" y2="77.333"/>
<line fill="none" stroke="#5F5F5F" stroke-miterlimit="10" x1="47.338" y1="18.575" x2="74.97" y2="40.854"/>
</svg>
