<?xml version="1.0" encoding="utf-8"?>
<!-- Generator: Adobe Illustrator 16.0.3, SVG Export Plug-In . SVG Version: 6.00 Build 0)  -->
<!DOCTYPE svg PUBLIC "-//W3C//DTD SVG 1.1//EN" "http://www.w3.org/Graphics/SVG/1.1/DTD/svg11.dtd">
<svg version="1.1" id="레이어_1" xmlns="http://www.w3.org/2000/svg" xmlns:xlink="http://www.w3.org/1999/xlink" x="0px"
	 y="0px" width="71.875px" height="92.538px" viewBox="0 0 71.875 92.538" enable-background="new 0 0 71.875 92.538"
	 xml:space="preserve">
<polygon fill="#F9D09A" points="23.933,44.788 3.333,53.872 24.402,18.769 47.712,13.427 "/>
<polygon fill="#F9D09A" points="23.57,44.788 47.712,13.427 70.97,22.059 48.254,53.61 "/>
<polygon fill="#F4F4F4" points="3.333,53.872 48.667,53.872 23.57,44.788 "/>
<g>
	<path fill="#E5E5E4" stroke="#5E5E5F" stroke-miterlimit="10" d="M31.034,31.488l10.587-15.416c0,0,1.007-1.636,0.25-3.188
		c-0.75-1.537-2.261,0.566-2.261,0.566L29.429,28.343c0,0-1.064,2.785-0.225,3.272C30.203,32.197,31.034,31.488,31.034,31.488z"/>
	<path fill="#F9D09A" stroke="#5E5E5F" stroke-miterlimit="10" d="M23.747,29.585l0.227,14.325l23.735-30.761L45.709,1.514
		L23.747,29.585z M29.429,28.343l10.182-14.892c0,0,1.511-2.104,2.261-0.566c0.757,1.552-0.25,3.188-0.25,3.188L31.034,31.488
		c0,0-0.831,0.708-1.831,0.127C28.365,31.128,29.429,28.343,29.429,28.343z"/>
</g>
<g>
	<polygon fill="#F9D09A" points="3.339,53.872 3.333,53.872 3.333,90.538 48.667,90.538 48.667,53.872 	"/>
	<polygon fill="#F9D09A" points="48.667,53.872 48.667,90.538 70.667,58.538 70.667,21.872 	"/>
	<polygon fill="#EECAB1" points="70.667,21.872 70.208,21.872 48.667,53.872 	"/>
	<polygon fill="#EECAB1" points="3.666,53.348 3.333,53.872 3.339,53.872 	"/>
	<line fill="none" stroke="#5F5F5F" stroke-miterlimit="10" x1="3.339" y1="53.872" x2="48.667" y2="53.872"/>
</g>
<g>
	<path fill="#D56867" stroke="#231815" stroke-miterlimit="10" d="M24.649,60.365c0,0,0.802,1.501,0,3.066c0,0,1.1,1.326,1.531,0
		c1.739-5.345-0.082-6.998-1.589-6.998c-1.506,0-2.729,0.846-2.729,2.373c0,0,0.297,2.227,2.332,1.934c0,0,1.744-1.198-0.496-1.853"
		/>
	<path fill="#D56867" stroke="#231815" stroke-miterlimit="10" d="M25.777,60.365c0,0,0.802,1.501,0,3.066c0,0,1.1,1.326,1.531,0
		c1.739-5.345-0.081-6.997-1.588-6.997c-1.507,0-2.729,0.847-2.729,2.373c0,0,0.298,2.227,2.332,1.934c0,0,1.745-1.198-0.497-1.852"
		/>
	<g>
		<path fill="#FFFFFF" stroke="#231815" stroke-miterlimit="10" d="M20.91,65.711"/>
		<path fill="#EEE77B" stroke="#231815" stroke-miterlimit="10" d="M20.656,66.544c0,0-2.887,0.975-2.723,1.762
			c0.168,0.814,3.319,0.979,3.319,0.979L20.656,66.544z"/>
		<path fill="#FFFFFF" stroke="#231815" stroke-miterlimit="10" d="M29.05,70.021c0.48-0.753,0.758-1.637,0.758-2.509
			c0-2.201-2.428-3.986-4.819-3.986c-2.391,0-4.329,1.785-4.329,3.986c0,1.479,1.182,2.996,2.681,3.836
			c-1.482,1.269-2.431,3.204-2.431,5.375c0,3.82,2.932,6.917,6.549,6.917c3.619,0,6.551-3.097,6.551-6.917
			C34.01,73.483,31.897,70.772,29.05,70.021z"/>
		<g>
			<line fill="none" stroke="#231815" stroke-miterlimit="10" x1="22.416" y1="66.243" x2="26.336" y2="66.243"/>
			<path fill="#FFFFFF" stroke="#231815" stroke-miterlimit="10" d="M23.583,66.243c0,0,0.496,1.354,1.092,0"/>
		</g>
	</g>
	<g>
		<path fill="#D5D6D5" stroke="#231815" stroke-miterlimit="10" d="M16.317,72.164L16.317,72.164L16.317,72.164z"/>
		<path fill="#D5D6D5" stroke="#231815" stroke-miterlimit="10" d="M36.264,73.151l-2.352,2.885l-2.106-2.453l-2.807,2.454
			l-2.185-2.454l-2.106,2.454l-2.185-2.454l-2.184,3.035l-3.233-3.035c-0.823,1.469-1.291,3.146-1.291,4.927
			c0,5.786,4.924,10.476,10.998,10.476c6.074,0,10.998-4.69,10.998-10.476C37.81,76.552,37.246,74.72,36.264,73.151z"/>
	</g>
	<path fill="#FFFFFF" stroke="#231815" stroke-miterlimit="10" d="M27.14,73.735c0,0,4.717-3.384,6.697-0.136
		c0,0,2.248,4.598-1.645,7.678c-0.809,0.639-0.708-1.333-0.12-3.693c0,0-1.204,5.302-2.997,5.081
		c-0.699-0.086,0.175-1.572,0.45-3.121c0,0-1.546,3.937-3.737,4.64c-0.927,0.297,0.769-1.792,0.952-3.44c0,0-1.01,4.075-4.883,3.95
		C18.778,84.594,23.91,76.63,27.14,73.735z"/>
</g>
<g>
	<g>
		<g>
			<path fill="#A3A2A2" d="M47.827,40.03c-0.236,0.105-0.553,0.184-0.95,0.232c-0.087,0.602-0.203,1.125-0.348,1.572
				c-0.146,0.446-0.32,0.891-0.524,1.332c-0.205,0.441-0.435,0.859-0.688,1.256c-0.655,1.025-1.43,1.741-2.327,2.146
				c-0.896,0.405-1.678,0.394-2.347-0.034c-0.418-0.266-0.716-0.651-0.896-1.155s-0.235-1.134-0.162-1.886
				c0.072-0.752,0.316-1.701,0.729-2.848c-0.747-0.087-1.276-0.231-1.593-0.433c-0.525-0.335-0.798-0.991-0.817-1.969
				c-0.02-0.979,0.286-1.962,0.918-2.952c0.478-0.75,0.989-1.271,1.536-1.563c0.546-0.292,1.042-0.295,1.489-0.01
				c1.033,0.659,1.096,2.415,0.19,5.266c1.072,0.045,2.391-0.056,3.957-0.302c-0.081-0.638-0.231-1.187-0.453-1.65
				c-0.221-0.462-0.621-0.93-1.201-1.407l1.08-1.692c0.426,0.425,0.752,0.858,0.974,1.301c0.222,0.441,0.398,0.91,0.529,1.406
				c0.13,0.496,0.197,1.085,0.2,1.768c0.141-0.022,0.23-0.037,0.267-0.045l0.84-0.211l0.747-0.186l0.206-0.062L47.827,40.03
				L47.827,40.03z M45.769,40.463c-1.366,0.256-2.839,0.358-4.421,0.308c-0.362,0.973-0.515,1.787-0.457,2.44
				c0.056,0.653,0.3,1.119,0.732,1.395c0.293,0.187,0.64,0.265,1.043,0.234c0.402-0.03,0.792-0.197,1.165-0.5
				c0.375-0.304,0.701-0.674,0.98-1.112C45.321,42.428,45.64,41.506,45.769,40.463z M40.985,38.899
				c0.375-1.075,0.528-1.896,0.458-2.469c-0.068-0.571-0.246-0.947-0.53-1.129c-0.179-0.114-0.391-0.124-0.634-0.027
				c-0.244,0.096-0.481,0.326-0.712,0.688c-0.213,0.334-0.349,0.67-0.409,1.009c-0.062,0.338-0.036,0.645,0.073,0.923
				c0.11,0.277,0.268,0.481,0.474,0.612C39.974,38.678,40.401,38.809,40.985,38.899z"/>
		</g>
		<g>
			<path fill="#231815" d="M37.193,47.025l-0.969-1.369c-0.169-0.254-0.319-0.525-0.449-0.812c-0.007,0.016-0.016,0.06-0.027,0.129
				c-0.066,0.254-0.127,0.424-0.183,0.513c-0.081,0.124-0.158,0.162-0.232,0.114c-0.081-0.051-0.165-0.174-0.253-0.367
				c-0.088-0.193-0.139-0.362-0.152-0.509c-0.021-0.325,0.067-0.745,0.263-1.261c0.195-0.516,0.473-1.054,0.833-1.617
				c0.218-0.341,0.437-0.635,0.658-0.881c0.223-0.247,0.441-0.438,0.657-0.575c0.215-0.136,0.419-0.215,0.613-0.233
				c0.193-0.021,0.37,0.02,0.527,0.121c0.22,0.141,0.379,0.324,0.477,0.55c0.1,0.226,0.145,0.511,0.135,0.857
				c-0.011,0.383-0.07,0.713-0.174,0.995c-0.01,0.032-0.033,0.084-0.068,0.155l0.018,0.011c0.791-0.999,1.483-1.309,2.078-0.93
				c0.119,0.076,0.226,0.181,0.323,0.313c0.095,0.133,0.175,0.286,0.237,0.462c0.063,0.174,0.102,0.36,0.118,0.559
				c0.041,0.434,0.033,0.911-0.027,1.432c-0.061,0.521-0.159,1.02-0.296,1.498c-0.137,0.477-0.297,0.859-0.479,1.145
				c-0.154,0.241-0.323,0.458-0.507,0.649c-0.185,0.192-0.354,0.331-0.511,0.417c-0.154,0.085-0.273,0.102-0.354,0.049
				c-0.076-0.049-0.129-0.121-0.16-0.215c-0.031-0.095-0.05-0.245-0.056-0.45l-0.027,0.009c-0.027,0.096-0.066,0.186-0.117,0.265
				c-0.106,0.167-0.232,0.278-0.375,0.332c-0.143,0.055-0.282,0.038-0.415-0.047c-0.076-0.047-0.224-0.203-0.445-0.463
				C37.634,47.611,37.412,47.33,37.193,47.025z M37.988,44.73c0.024,0.032,0.051,0.067,0.082,0.104
				c0.031,0.038,0.061,0.073,0.086,0.107c0.294,0.39,0.522,0.722,0.687,0.995c0.164,0.274,0.286,0.53,0.367,0.771
				c0.053,0.142,0.091,0.32,0.114,0.536c0.325-0.312,0.551-0.536,0.678-0.676s0.239-0.287,0.337-0.443
				c0.116-0.179,0.196-0.352,0.241-0.518c0.046-0.166,0.06-0.338,0.044-0.521c-0.026-0.269-0.101-0.521-0.223-0.758
				c-0.122-0.237-0.275-0.413-0.456-0.53c-0.199-0.126-0.423-0.147-0.672-0.062c-0.122,0.042-0.235,0.104-0.338,0.186
				c-0.104,0.082-0.226,0.208-0.368,0.378c-0.136,0.153-0.238,0.255-0.304,0.307C38.197,44.655,38.104,44.698,37.988,44.73z
				 M36.554,42.854l1.222,1.599c0.028-0.033,0.054-0.067,0.077-0.104c0.102-0.16,0.163-0.385,0.179-0.673
				c0.021-0.361-0.005-0.668-0.08-0.924c-0.075-0.254-0.192-0.432-0.352-0.534c-0.333-0.213-0.639-0.099-0.918,0.339
				C36.604,42.678,36.562,42.777,36.554,42.854z"/>
		</g>
		<g>
			<path fill="#231815" d="M45.313,39.489l-2.275-2.942c-0.178-0.224-0.289-0.404-0.33-0.544c-0.022-0.084-0.024-0.179-0.009-0.286
				l-0.015-0.009l-0.04,0.062c-0.055,0.085-0.129,0.291-0.221,0.615c-0.106,0.354-0.195,0.588-0.267,0.701
				c-0.039,0.059-0.074,0.096-0.104,0.107c-0.032,0.011-0.069,0.003-0.111-0.023c-0.098-0.062-0.183-0.164-0.257-0.305
				c-0.073-0.141-0.123-0.294-0.147-0.461c-0.025-0.166-0.021-0.317,0.012-0.457c0.081-0.311,0.239-0.703,0.476-1.174
				c0.235-0.472,0.52-0.968,0.85-1.487C43.23,32.728,43.606,32.298,44,32c0.395-0.299,0.799-0.459,1.212-0.482
				c0.415-0.021,0.822,0.094,1.224,0.352c0.405,0.258,0.75,0.616,1.035,1.072c0.286,0.456,0.466,0.932,0.539,1.43
				c0.177,1.17-0.135,2.382-0.938,3.637c-0.256,0.405-0.519,0.755-0.786,1.056c-0.267,0.3-0.474,0.478-0.62,0.534
				c-0.088,0.041-0.175,0.033-0.26-0.021C45.385,39.562,45.354,39.533,45.313,39.489z M43.577,34.148l2.221,2.676
				c0.014,0.016,0.052,0.058,0.115,0.123c0.159,0.177,0.27,0.333,0.332,0.468c0.051,0.099,0.095,0.234,0.134,0.405
				c0.061-0.083,0.124-0.178,0.192-0.284c0.165-0.259,0.289-0.482,0.37-0.672c0.083-0.19,0.136-0.381,0.162-0.573
				c0.026-0.192,0.027-0.389,0.002-0.588c-0.05-0.379-0.171-0.723-0.361-1.03s-0.445-0.563-0.766-0.767
				c-0.295-0.189-0.595-0.305-0.904-0.351c-0.308-0.046-0.593-0.019-0.852,0.083C43.96,33.739,43.745,33.91,43.577,34.148z"/>
		</g>
	</g>
	<g>
		<path fill="#231815" d="M46.82,30.128l0.736-1.157l-0.571-0.365l0.641-1.004l0.571,0.364l0.674-1.056
			c0.081-0.126,0.191-0.144,0.332-0.055c0.278,0.177,0.339,0.387,0.185,0.631l-0.558,0.874l0.17,0.108
			c0.286,0.183,0.638,0.268,1.057,0.253c0.42-0.016,0.94-0.166,1.563-0.453c0.192-0.084,0.316,0.008,0.369,0.278
			c0.043,0.292-0.032,0.49-0.226,0.594c-0.661,0.363-1.267,0.579-1.819,0.646c0.173,0.526,0.246,1.103,0.218,1.735
			c-0.009,0.215-0.155,0.365-0.439,0.448c-0.254,0.081-0.39,0.009-0.407-0.216c-0.031-0.556-0.129-1.027-0.292-1.412
			c-0.163-0.387-0.388-0.671-0.673-0.853L48.18,29.38l-0.733,1.148L46.82,30.128L46.82,30.128z M53.903,27.328
			c0.517,0.33,0.649,0.696,0.393,1.098l-0.097,0.152c-0.116,0.182-0.241,0.23-0.375,0.145l-4.94-3.153l0.654-1.026L53.903,27.328
			L53.903,27.328z"/>
		<path fill="#231815" d="M53.439,19.98c0.598,0.382,0.929,0.968,0.995,1.76c0.066,0.792-0.095,1.704-0.484,2.741
			c-0.069,0.218-0.237,0.318-0.503,0.299c-0.26-0.022-0.352-0.154-0.28-0.393c0.26-0.762,0.396-1.432,0.406-2.011
			c0.002-0.019,0-0.038-0.004-0.055l-1.077,1.688l-0.6-0.383l1.398-2.19c-0.097-0.132-0.224-0.25-0.381-0.349l-1.475,2.311
			l-0.627-0.401l1.858-2.912c0.181-0.283,0.377-0.358,0.586-0.225L53.439,19.98L53.439,19.98z M55.61,24.791l-1.171-0.747
			l0.64-1.003l0.971,0.62c0.134,0.085,0.258,0.036,0.375-0.146l1.883-2.95c0.081-0.126,0.188-0.149,0.322-0.063
			c0.285,0.181,0.35,0.394,0.194,0.639l-2.042,3.199C56.419,24.908,56.029,25.058,55.61,24.791z M56.842,19.573
			c0.518,0.331,0.649,0.697,0.394,1.097l-0.088,0.139c-0.116,0.181-0.242,0.231-0.375,0.146l-3.512-2.242l0.646-1.011L56.842,19.573
			L56.842,19.573z"/>
	</g>
</g>
<line fill="none" stroke="#5F5F5F" stroke-miterlimit="10" x1="48.667" y1="90.538" x2="48.667" y2="53.872"/>
<path fill="none" stroke="#5F5F5F" stroke-miterlimit="10" d="M69.489,48.054"/>
<path fill="none" stroke="#5F5F5F" stroke-miterlimit="10" d="M50.657,65.146"/>
<path fill="none" stroke="#5F5F5F" stroke-miterlimit="10" d="M22.171,36.779"/>
<path fill="none" stroke="#5F5F5F" stroke-miterlimit="10" d="M22.171,15.779"/>
<path fill="none" stroke="#5F5F5F" stroke-miterlimit="10" d="M22.027,36.059"/>
<path fill="none" stroke="#5F5F5F" stroke-miterlimit="10" d="M68.588-1.592"/>
<path fill="none" stroke="#5F5F5F" stroke-miterlimit="10" d="M22.171,15.779"/>
<path fill="none" stroke="#5F5F5F" stroke-miterlimit="10" d="M45.338,5.305"/>
<path fill="none" stroke="#5F5F5F" stroke-miterlimit="10" d="M68.588-1.592"/>
<path fill="none" stroke="#5F5F5F" stroke-miterlimit="10" d="M3.339,53.872"/>
<path fill="none" stroke="#5F5F5F" stroke-miterlimit="10" d="M22.171,29.064"/>
<line fill="none" stroke="#5F5F5F" stroke-miterlimit="10" x1="3.339" y1="53.348" x2="3.333" y2="90.538"/>
<line fill="none" stroke="#5F5F5F" stroke-miterlimit="10" x1="3.333" y1="90.538" x2="48.667" y2="90.538"/>
<line fill="none" stroke="#5F5F5F" stroke-miterlimit="10" x1="48.667" y1="90.538" x2="70.667" y2="58.538"/>
<line fill="none" stroke="#5F5F5F" stroke-miterlimit="10" x1="70.667" y1="21.872" x2="70.667" y2="58.538"/>
<polyline fill="none" stroke="#5F5F5F" stroke-miterlimit="10" points="47.712,13.427 70.667,21.872 48.667,53.872 23.57,44.788 "/>
<text transform="matrix(0.4631 -0.6817 0.1889 0.982 50.8066 74.1216)" font-family="'KoPubDotumBold'" font-size="5">꼬끼오오옼ㅋㅋㅋ!!!</text>
<line fill="none" stroke="#5F5F5F" stroke-miterlimit="10" x1="3.333" y1="53.872" x2="23.933" y2="44.788"/>
<line fill="none" stroke="#5F5F5F" stroke-miterlimit="10" x1="3.333" y1="53.872" x2="24.402" y2="18.769"/>
<line fill="none" stroke="#5F5F5F" stroke-miterlimit="10" x1="24.031" y1="19.01" x2="33.915" y2="16.589"/>
<path fill="#F4F4F4" d="M47.119,63.303c0,2.745-1.81,3.97-4.042,3.97c-2.232,0-4.042-1.225-4.042-3.97s1.81-5.97,4.042-5.97
	C45.309,57.333,47.119,60.558,47.119,63.303z"/>
<path fill="#F4F4F4" d="M47.119,85.095c0,2.745-1.81,3.97-4.042,3.97c-2.232,0-4.042-1.225-4.042-3.97s1.81-5.97,4.042-5.97
	C45.309,79.125,47.119,82.35,47.119,85.095z"/>
<path fill="#F4F4F4" d="M13.868,62.333c0,2.745-1.81,3.97-4.042,3.97c-2.232,0-4.042-1.225-4.042-3.97s1.81-5.97,4.042-5.97
	C12.058,56.363,13.868,59.588,13.868,62.333z"/>
<path fill="#F4F4F4" d="M12.977,85.095c0,2.745-1.81,3.97-4.042,3.97c-2.232,0-4.042-1.225-4.042-3.97s1.81-5.97,4.042-5.97
	C11.167,79.125,12.977,82.35,12.977,85.095z"/>
</svg>
