<?xml version="1.0" encoding="utf-8"?>
<!-- Generator: Adobe Illustrator 16.0.3, SVG Export Plug-In . SVG Version: 6.00 Build 0)  -->
<!DOCTYPE svg PUBLIC "-//W3C//DTD SVG 1.1//EN" "http://www.w3.org/Graphics/SVG/1.1/DTD/svg11.dtd">
<svg version="1.1" id="레이어_1" xmlns="http://www.w3.org/2000/svg" xmlns:xlink="http://www.w3.org/1999/xlink" x="0px"
	 y="0px" width="39.875px" height="56.75px" viewBox="0 0 39.875 56.75" enable-background="new 0 0 39.875 56.75"
	 xml:space="preserve">
<g>
	<path fill="#E06B6A" stroke="#231815" stroke-miterlimit="10" d="M16.148,7.568c0,0,1.386,2.53,0,5.171c0,0,1.901,2.236,2.647,0
		c3.006-9.016-0.14-11.802-2.746-11.802s-4.719,1.428-4.719,4.003c0,0,0.515,3.755,4.032,3.26c0,0,3.016-2.02-0.857-3.124"/>
	<path fill="#E06B6A" stroke="#231815" stroke-miterlimit="10" d="M18.099,7.568c0,0,1.386,2.53,0,5.171c0,0,1.901,2.236,2.646,0
		C23.752,3.723,20.606,0.938,18,0.938s-4.719,1.428-4.719,4.003c0,0,0.515,3.755,4.032,3.26c0,0,3.016-2.02-0.858-3.124"/>
	<g>
		<path fill="#FFFFFF" stroke="#231815" stroke-miterlimit="10" d="M9.682,16.583"/>
		<path fill="#F6EE7A" stroke="#231815" stroke-miterlimit="10" d="M9.245,17.99c0,0-4.99,1.644-4.709,2.971
			c0.292,1.374,5.738,1.651,5.738,1.651L9.245,17.99z"/>
		<path fill="#FFFFFF" stroke="#231815" stroke-miterlimit="10" d="M23.757,23.851c0.829-1.27,1.311-2.76,1.311-4.23
			c0-3.713-4.198-6.722-8.332-6.722c-4.133,0-7.484,3.009-7.484,6.722c0,2.494,2.043,5.053,4.635,6.469
			c-2.563,2.139-4.204,5.403-4.204,9.065c0,6.442,5.07,11.664,11.325,11.664s11.325-5.222,11.325-11.664
			C32.332,29.691,28.68,25.119,23.757,23.851z"/>
		<g>
			<line fill="#FFFFFF" stroke="#231815" stroke-miterlimit="10" x1="12.287" y1="17.482" x2="19.065" y2="17.482"/>
			<path fill="#FFFFFF" stroke="#231815" stroke-miterlimit="10" d="M14.304,17.482c0,0,0.858,2.284,1.888,0"/>
		</g>
	</g>
	<g>
		<polygon fill="#D5D5D5" stroke="#231815" stroke-miterlimit="10" points="1.742,27.467 1.742,27.467 1.742,27.467 		"/>
		<path fill="#D5D5D5" stroke="#231815" stroke-miterlimit="10" d="M36.229,29.132l-4.067,4.865L28.52,29.86l-4.854,4.138
			l-3.776-4.138l-3.641,4.138l-3.776-4.138l-3.775,5.119L3.107,29.86c-1.424,2.477-2.232,5.305-2.232,8.309
			c0,9.758,8.513,17.668,19.014,17.668c10.502,0,19.015-7.91,19.015-17.668C38.903,34.867,37.926,31.777,36.229,29.132z"/>
	</g>
	<path fill="#FFFFFF" stroke="#231815" stroke-miterlimit="10" d="M20.454,30.116c0,0,8.156-5.708,11.578-0.23
		c0,0,3.887,7.755-2.845,12.949c-1.397,1.077-1.224-2.248-0.207-6.228c0,0-2.08,8.942-5.18,8.569
		c-1.209-0.145,0.302-2.65,0.776-5.264c0,0-2.672,6.641-6.461,7.826c-1.601,0.501,1.33-3.021,1.646-5.803
		c0,0-1.746,6.873-8.442,6.662C5.997,48.43,14.869,34.999,20.454,30.116z"/>
</g>
</svg>
