<?xml version="1.0" encoding="utf-8"?>
<!-- Generator: Adobe Illustrator 16.0.3, SVG Export Plug-In . SVG Version: 6.00 Build 0)  -->
<!DOCTYPE svg PUBLIC "-//W3C//DTD SVG 1.1//EN" "http://www.w3.org/Graphics/SVG/1.1/DTD/svg11.dtd">
<svg version="1.1" id="레이어_1" xmlns="http://www.w3.org/2000/svg" xmlns:xlink="http://www.w3.org/1999/xlink" x="0px"
	 y="0px" width="50px" height="50px" viewBox="0 0 50 50" enable-background="new 0 0 50 50" xml:space="preserve">
<g>
	<path fill="#E68D2F" d="M20.495,32.403l-6.617,2.286c-0.727-3.221-0.98-5.447-0.759-6.678c0.221-1.231,1.178-3.055,2.869-5.47
		c1.327-1.908,2.149-3.313,2.465-4.214s0.3-1.854-0.048-2.859c-0.412-1.192-1.121-2.003-2.126-2.428
		c-1.006-0.425-2.086-0.439-3.24-0.04c-2.637,0.911-3.81,3.405-3.52,7.483L2.156,21.11c-0.232-3.24,0.459-6.221,2.074-8.944
		c1.615-2.723,3.99-4.626,7.126-5.71c3.292-1.137,6.378-1.15,9.261-0.038c2.882,1.113,4.848,3.187,5.896,6.22
		c0.5,1.449,0.68,2.861,0.537,4.237c-0.143,1.374-0.497,2.594-1.064,3.658c-0.568,1.064-1.505,2.385-2.813,3.961
		c-1.614,1.97-2.557,3.388-2.826,4.254S20.127,30.833,20.495,32.403z M21.94,34.994l1.385,8.278l-7.857,2.715l-1.386-8.278
		L21.94,34.994z"/>
</g>
<g>
	<path fill="#DE7C62" d="M39.284,37.216l-1.316,9.321h-7.82l1.316-9.321H39.284z M37.607,33.894h-4.078l1.316-29.347h9.033
		L37.607,33.894z"/>
</g>
</svg>
