<?xml version="1.0" encoding="utf-8"?>
<!-- Generator: Adobe Illustrator 16.0.3, SVG Export Plug-In . SVG Version: 6.00 Build 0)  -->
<!DOCTYPE svg PUBLIC "-//W3C//DTD SVG 1.1//EN" "http://www.w3.org/Graphics/SVG/1.1/DTD/svg11.dtd">
<svg version="1.1" id="레이어_1" xmlns="http://www.w3.org/2000/svg" xmlns:xlink="http://www.w3.org/1999/xlink" x="0px"
	 y="0px" width="28.746px" height="19.375px" viewBox="0 0 28.746 19.375" enable-background="new 0 0 28.746 19.375"
	 xml:space="preserve">
<g>
	<g>
		<path fill="#A3A2A2" d="M18.755,18.806c-0.327-0.252-0.685-0.651-1.073-1.196c-0.84,0.442-1.604,0.768-2.294,0.977
			c-0.69,0.209-1.4,0.371-2.131,0.486c-0.731,0.114-1.455,0.171-2.169,0.171c-1.846,0-3.394-0.476-4.643-1.428
			c-1.25-0.952-1.874-2.13-1.874-3.537c0-0.876,0.249-1.69,0.747-2.44c0.498-0.75,1.257-1.43,2.279-2.038
			c1.021-0.608,2.434-1.149,4.238-1.624c-0.498-1.198-0.747-2.128-0.747-2.791c0-1.104,0.617-2.136,1.851-3.098
			c1.234-0.961,2.743-1.442,4.526-1.442c1.348,0,2.432,0.268,3.251,0.805c0.819,0.537,1.229,1.274,1.229,2.213
			c0,2.17-2.194,3.937-6.581,5.302c0.817,1.644,2.022,3.517,3.616,5.618c0.75-0.727,1.33-1.475,1.741-2.245
			c0.411-0.771,0.684-1.815,0.819-3.134h3.048c-0.197,1.042-0.487,1.939-0.87,2.693c-0.383,0.753-0.839,1.464-1.367,2.13
			s-1.228,1.328-2.098,1.982c0.144,0.189,0.236,0.308,0.277,0.355l0.955,1.054l0.848,0.936l0.247,0.249H18.755z M16.521,16.146
			c-1.443-1.794-2.777-3.896-4.004-6.307c-1.539,0.387-2.704,0.934-3.494,1.641c-0.79,0.707-1.186,1.514-1.186,2.422
			c0,0.616,0.184,1.211,0.552,1.783c0.367,0.573,0.898,0.993,1.592,1.262s1.435,0.403,2.222,0.403
			C13.642,17.35,15.081,16.949,16.521,16.146z M14.617,7.513c1.68-0.463,2.857-1.019,3.532-1.667
			c0.674-0.648,1.011-1.271,1.011-1.868c0-0.377-0.161-0.701-0.482-0.972s-0.809-0.407-1.462-0.407
			c-0.602,0-1.143,0.116-1.625,0.348c-0.482,0.231-0.855,0.562-1.12,0.99c-0.265,0.428-0.397,0.858-0.397,1.291
			C14.074,5.792,14.255,6.555,14.617,7.513z"/>
	</g>
	<g>
		<path fill="#231815" d="M1.126,9.596l0.961-2.751C2.273,6.351,2.498,5.869,2.761,5.4C2.733,5.405,2.67,5.434,2.572,5.484
			C2.194,5.627,1.925,5.698,1.767,5.698c-0.225,0-0.337-0.079-0.337-0.237c0-0.168,0.088-0.41,0.263-0.726s0.351-0.553,0.526-0.711
			c0.4-0.341,1.009-0.611,1.828-0.81s1.735-0.298,2.749-0.298c0.614,0,1.168,0.048,1.664,0.145s0.919,0.241,1.27,0.432
			c0.351,0.191,0.618,0.422,0.801,0.692s0.275,0.571,0.275,0.902c0,0.464-0.104,0.876-0.313,1.238
			c-0.208,0.362-0.537,0.701-0.986,1.017C9.009,7.688,8.538,7.917,8.094,8.03C8.044,8.045,7.959,8.06,7.839,8.076v0.038
			c1.923,0.229,2.884,0.968,2.884,2.216c0,0.25-0.045,0.51-0.136,0.78s-0.222,0.535-0.395,0.795s-0.379,0.497-0.621,0.71
			c-0.521,0.474-1.138,0.915-1.853,1.322s-1.434,0.736-2.157,0.986c-0.723,0.25-1.342,0.375-1.857,0.375
			c-0.433,0-0.848-0.046-1.245-0.138c-0.397-0.092-0.713-0.213-0.949-0.363c-0.235-0.15-0.353-0.312-0.353-0.485
			c0-0.158,0.048-0.306,0.144-0.443c0.096-0.138,0.272-0.309,0.53-0.512l-0.033-0.031c-0.147,0.051-0.293,0.077-0.435,0.077
			c-0.302,0-0.545-0.082-0.731-0.245c-0.187-0.163-0.279-0.385-0.279-0.665c0-0.158,0.077-0.526,0.23-1.104
			C0.737,10.811,0.917,10.213,1.126,9.596z M4.711,8.596C4.689,8.662,4.667,8.736,4.645,8.817C4.623,8.899,4.601,8.976,4.579,9.046
			c-0.259,0.81-0.497,1.467-0.713,1.972s-0.445,0.933-0.686,1.284c-0.137,0.214-0.334,0.44-0.591,0.68
			c0.663,0.188,1.135,0.311,1.417,0.367c0.282,0.056,0.563,0.084,0.842,0.084c0.324,0,0.61-0.044,0.859-0.134
			c0.25-0.089,0.483-0.233,0.703-0.432c0.323-0.295,0.586-0.647,0.789-1.055s0.304-0.803,0.304-1.185
			c0-0.418-0.156-0.772-0.468-1.063C6.881,9.423,6.71,9.313,6.521,9.237c-0.189-0.077-0.45-0.14-0.784-0.191
			c-0.307-0.056-0.52-0.109-0.64-0.16C4.977,8.835,4.848,8.738,4.711,8.596z M5.94,4.667L4.893,8.014
			C4.958,8.024,5.024,8.03,5.089,8.03c0.289,0,0.625-0.125,1.006-0.375c0.48-0.311,0.852-0.644,1.117-0.998s0.396-0.699,0.396-1.036
			c0-0.698-0.395-1.047-1.184-1.047C6.206,4.575,6.044,4.605,5.94,4.667z"/>
	</g>
	<g>
		<path fill="#231815" d="M17.394,14.537l1.907-6.2c0.139-0.479,0.28-0.816,0.425-1.011c0.091-0.113,0.211-0.208,0.36-0.286V7.009
			h-0.112c-0.155,0-0.478,0.085-0.969,0.255c-0.54,0.18-0.911,0.27-1.114,0.27c-0.107,0-0.181-0.018-0.221-0.054
			s-0.06-0.098-0.06-0.186c0-0.206,0.06-0.431,0.18-0.675c0.121-0.245,0.277-0.464,0.469-0.66c0.192-0.196,0.39-0.334,0.593-0.417
			c0.465-0.175,1.095-0.312,1.891-0.409c0.796-0.098,1.661-0.146,2.596-0.146c1.004,0,1.859,0.152,2.564,0.455
			c0.705,0.304,1.241,0.754,1.607,1.352c0.366,0.597,0.549,1.317,0.549,2.162c0,0.849-0.175,1.705-0.525,2.567
			c-0.35,0.862-0.813,1.584-1.39,2.166c-1.352,1.379-3.157,2.069-5.417,2.069c-0.727,0-1.39-0.057-1.991-0.17
			c-0.601-0.113-0.998-0.252-1.19-0.417c-0.123-0.092-0.185-0.229-0.185-0.409C17.361,14.715,17.372,14.64,17.394,14.537z
			 M22.809,6.855L21.2,12.723c-0.011,0.036-0.032,0.131-0.064,0.286c-0.096,0.407-0.206,0.721-0.329,0.942
			c-0.085,0.17-0.222,0.366-0.409,0.587c0.155,0.01,0.329,0.015,0.521,0.015c0.465,0,0.852-0.029,1.162-0.088
			c0.31-0.059,0.598-0.161,0.865-0.305s0.518-0.329,0.753-0.556c0.443-0.438,0.784-0.945,1.022-1.521
			c0.237-0.577,0.356-1.202,0.356-1.876c0-0.618-0.096-1.178-0.289-1.683c-0.192-0.504-0.46-0.902-0.802-1.193
			C23.646,7.039,23.252,6.881,22.809,6.855z"/>
	</g>
</g>
</svg>
